# xmcd
#
# Track frame offsets:
#	150
#	17574
#	36525
#	60479
#	81019
#	123666
#	148915
#	168062
#	202461
#	216237
#	255183
#	274770
#	302770
#
# Disc length: 4366 seconds
#
# Revision: 12
# Processed by: cddbd v1.5.2PL0 Copyright (c) Steve Scherf et al.
# Submitted via: dBpowerAMP V4.0
#
DISCID=be110c0d
DTITLE=Various Artist - Working Man
DYEAR=1996
DGENRE=Progressive Rock
TTITLE0=Working Man
TTITLE1=By-Tor And The Snow Dog
TTITLE2=Analog Kid
TTITLE3=The Trees
TTITLE4=La Villa Strangiato
TTITLE5=Mission
TTITLE6=Anthem
TTITLE7=Jacob's Ladder
TTITLE8=Closer To The Heart
TTITLE9=Natural Science
TTITLE10=YYZ
TTITLE11=Red Barchetta
TTITLE12=Freewill
EXTD=Roberto Rosa
EXTT0=
EXTT1=
EXTT2=
EXTT3=
EXTT4=
EXTT5=
EXTT6=
EXTT7=
EXTT8=
EXTT9=
EXTT10=
EXTT11=
EXTT12=
PLAYORDER=
